<?xml version="1.0" standalone="yes"?>
<svg xmlns="http://www.w3.org/2000/svg" width="500" height="500">
<path style="fill:#000000; stroke:none;" d="M0 0L0 500L500 500L500 0L0 0z"/>
<path style="fill:#339999; stroke:none;" d="M213 187C214.248 187.685 214.548 187.749 216 188C214.752 187.315 214.452 187.251 213 187z"/>
<path style="fill:#0055aa; stroke:none;" d="M216 187C217.506 187.683 218.315 187.826 220 188C218.494 187.317 217.685 187.174 216 187z"/>
<path style="fill:#339999; stroke:none;" d="M220.667 187.333C220.222 187.778 221.278 187.722 221.333 187.667C221.778 187.222 220.722 187.278 220.667 187.333z"/>
<path style="fill:#336699; stroke:none;" d="M222.667 187.333C222.222 187.778 223.278 187.722 223.333 187.667C223.778 187.222 222.722 187.278 222.667 187.333z"/>
<path style="fill:#008080; stroke:none;" d="M224 187C225.248 187.685 225.548 187.749 227 188C225.752 187.315 225.452 187.251 224 187z"/>
<path style="fill:#555555; stroke:none;" d="M228 187L229 188L228 187z"/>
<path style="fill:#0000ff; stroke:none;" d="M233 187L234 188L233 187z"/>
<path style="fill:#0055aa; stroke:none;" d="M234 187L235 188L234 187z"/>
<path style="fill:#008080; stroke:none;" d="M235.667 187.333C235.222 187.778 236.278 187.722 236.333 187.667C236.778 187.222 235.722 187.278 235.667 187.333z"/>
<path style="fill:#0000ff; stroke:none;" d="M237 187C238.248 187.685 238.548 187.749 240 188C238.752 187.315 238.452 187.251 237 187z"/>
<path style="fill:#008080; stroke:none;" d="M240 187C241.506 187.683 242.315 187.826 244 188C242.494 187.317 241.685 187.174 240 187z"/>
<path style="fill:#0000ff; stroke:none;" d="M244 187L245 188L244 187z"/>
<path style="fill:#00aaaa; stroke:none;" d="M253.667 187.333C253.222 187.778 254.278 187.722 254.333 187.667C254.778 187.222 253.722 187.278 253.667 187.333z"/>
<path style="fill:#008080; stroke:none;" d="M255.667 187.333C255.222 187.778 256.278 187.722 256.333 187.667C256.778 187.222 255.722 187.278 255.667 187.333z"/>
<path style="fill:#0000ff; stroke:none;" d="M257.667 187.333C257.222 187.778 258.278 187.722 258.333 187.667C258.778 187.222 257.722 187.278 257.667 187.333z"/>
<path style="fill:#008080; stroke:none;" d="M259.667 187.333C259.222 187.778 260.278 187.722 260.333 187.667C260.778 187.222 259.722 187.278 259.667 187.333z"/>
<path style="fill:#0055aa; stroke:none;" d="M261 187C262.769 187.779 264.036 187.912 266 188C264.231 187.221 262.964 187.088 261 187z"/>
<path style="fill:#008080; stroke:none;" d="M266 187C267.506 187.683 268.315 187.826 270 188C268.494 187.317 267.685 187.174 266 187z"/>
<path style="fill:#336699; stroke:none;" d="M270.667 187.333C270.222 187.778 271.278 187.722 271.333 187.667C271.778 187.222 270.722 187.278 270.667 187.333z"/>
<path style="fill:#006699; stroke:none;" d="M272 187C273.248 187.685 273.548 187.749 275 188C273.752 187.315 273.452 187.251 272 187z"/>
<path style="fill:#408080; stroke:none;" d="M275.667 187.333C275.222 187.778 276.278 187.722 276.333 187.667C276.778 187.222 275.722 187.278 275.667 187.333z"/>
<path style="fill:#0055aa; stroke:none;" d="M277 187L278 188L277 187z"/>
<path style="fill:#008080; stroke:none;" d="M278 187C279.506 187.683 280.315 187.826 282 188C280.494 187.317 279.685 187.174 278 187z"/>
<path style="fill:#198495; stroke:none;" d="M212 188L212 217L214 217C214 208.867 216.689 194.864 212 188z"/>
<path style="fill:#26aec4; stroke:none;" d="M213 190C217.97 188.817 222.919 189 228 189C224.12 187.372 215.931 186.645 213 190z"/>
<path style="fill:#358794; stroke:none;" d="M228.333 188.667C228.278 188.722 228.222 189.778 228.667 189.333C228.722 189.278 228.778 188.222 228.333 188.667z"/>
<path style="fill:#2ab8c4; stroke:none;" d="M232 190L238 189C235.471 187.961 233.824 187.907 232 190z"/>
<path style="fill:#249cb6; stroke:none;" d="M238 188C241.163 189.327 244.586 189 248 189C244.837 187.673 241.414 188 238 188z"/>
<path style="fill:#0f4e58; stroke:none;" d="M248 188L248 190L250 190C249.455 188.365 249.635 188.545 248 188z"/>
<path style="fill:#1f6a76; stroke:none;" d="M251 188L251 191C251.696 189.446 251.696 189.554 251 188z"/>
<path style="fill:#1f97b0; stroke:none;" d="M252 190C261.795 188.182 272.067 189 282 189C275.814 186.404 266.678 187.987 260 188C256.895 188.006 254.103 187.593 252 190z"/>
<path style="fill:#21747e; stroke:none;" d="M282.667 188.333C282.222 188.778 283.278 188.722 283.333 188.667C283.778 188.222 282.722 188.278 282.667 188.333z"/>
<path style="fill:#063d3d; stroke:none;" d="M284 188L284 190L286 190C285.455 188.365 285.635 188.545 284 188z"/>
<path style="fill:#067a8b; stroke:none;" d="M214 189C218.217 190.769 223.459 190 228 190C223.783 188.231 218.541 189 214 189z"/>
<path style="fill:#1a4d59; stroke:none;" d="M229 189L230 190L229 189z"/>
<path style="fill:#0d6e84; stroke:none;" d="M233 189C237.471 190.876 243.183 190 248 190C243.529 188.124 237.817 189 233 189z"/>
<path style="fill:#00697b; stroke:none;" d="M254 189C262.128 192.411 275.186 190 284 190C275.872 186.589 262.814 189 254 189z"/>
<path style="fill:#000b0c; stroke:none;" d="M214 190L214 226C215.552 222.301 215 217.983 215 214L215 191L230 191C225.276 189.018 219.09 190 214 190z"/>
<path style="fill:#330000; stroke:none;" d="M230 190C230.168 192.403 230.197 193.46 232 195C231.449 193.175 230.924 191.648 230 190z"/>
<path style="fill:#398187; stroke:none;" d="M232.333 190.667C232.278 190.722 232.222 191.778 232.667 191.333C232.722 191.278 232.778 190.222 232.333 190.667z"/>
<path style="fill:#0c3d44; stroke:none;" d="M233 190C232.588 193.492 232.425 196.516 233 200C234.346 196.793 234.346 193.207 233 190z"/>
<path style="fill:#000c10; stroke:none;" d="M234 192C239.369 190.722 244.581 191.578 250 191C246.011 189.326 237.01 188.556 234 192z"/>
<path style="fill:#6f3333; stroke:none;" d="M250 190L250 196C250.951 193.715 250.951 192.285 250 190z"/>
<path style="fill:#418783; stroke:none;" d="M252.333 190.667C252.278 190.722 252.222 191.778 252.667 191.333C252.722 191.278 252.778 190.222 252.333 190.667z"/>
<path style="fill:#00373d; stroke:none;" d="M253 190L253 198C254.161 195.23 254.161 192.77 253 190z"/>
<path style="fill:#240000; stroke:none;" d="M285 190L285 204L280 204C282.052 204.874 283.747 204.953 286 205C286 200.183 286.876 194.471 285 190z"/>
<path style="fill:#a20403; stroke:none;" d="M286 190L286 206C288.04 201.139 286.761 195.206 288 190L286 190z"/>
<path style="fill:#000100; stroke:none;" d="M215 191L215 226C219.97 224.817 224.919 225 230 225L230 217L232 217L233 226C238.388 225.319 243.563 225 249 225L250 191C246.214 191.195 237.616 189.349 235.028 192.603C233.532 194.484 234.008 197.768 234 200C232.483 197.01 230.801 194.256 230 191L215 191z"/>
<path style="fill:#643c3c; stroke:none;" d="M231 191L231 194C231.696 192.446 231.696 192.554 231 191z"/>
<path style="fill:#421419; stroke:none;" d="M251 191L251 198C252.059 195.466 252.059 193.534 251 191z"/>
<path style="fill:#e83435; stroke:none;" d="M287 191L287 206C288.74 201.852 288.74 195.148 287 191z"/>
<path style="fill:#325860; stroke:none;" d="M232.333 192.667C232.278 192.722 232.222 193.778 232.667 193.333C232.722 193.278 232.778 192.222 232.333 192.667z"/>
<path style="fill:#33525c; stroke:none;" d="M252 192L252 197C252.83 194.969 252.83 194.03 252 192z"/>
<path style="fill:#872929; stroke:none;" d="M250 196L250 203C251.059 200.466 251.059 198.534 250 196z"/>
<path style="fill:#2e383d; stroke:none;" d="M252 197L252 200C252.696 198.446 252.696 198.554 252 197z"/>
<path style="fill:#5b0000; stroke:none;" d="M251 198L251 204C251.951 201.715 251.951 200.285 251 198z"/>
<path style="fill:#241212; stroke:none;" d="M252 200L252 204C252.71 202.24 252.71 201.759 252 200z"/>
<path style="fill:#b71219; stroke:none;" d="M250 203L250 228C252.413 222.25 252.413 208.75 250 203z"/>
<path style="fill:#c8262a; stroke:none;" d="M251 204L251 228C253.349 222.403 253.349 209.597 251 204z"/>
<path style="fill:#260000; stroke:none;" d="M249 205L249 225L236 225C240.217 226.769 245.459 226 250 226C250 219.564 251.5 210.959 249 205z"/>
<path style="fill:#3f0f1d; stroke:none;" d="M253 205C254.902 206.156 255.722 206.156 258 206C256.231 205.221 254.964 205.088 253 205z"/>
<path style="fill:#0f464d; stroke:none;" d="M258 205L258 212C259.222 209.717 259.652 207.572 260 205L258 205z"/>
<path style="fill:#5d0a02; stroke:none;" d="M280 205C282.052 205.874 283.747 205.953 286 206C283.948 205.126 282.253 205.047 280 205z"/>
<path style="fill:#7c4356; stroke:none;" d="M255 206C256.248 206.685 256.548 206.749 258 207C256.752 206.315 256.452 206.251 255 206z"/>
<path style="fill:#450000; stroke:none;" d="M279 206L279 226L262 226C267.222 228.191 274.368 227 280 227C280 220.564 281.5 211.959 279 206z"/>
<path style="fill:#c5181a; stroke:none;" d="M280 206C280 212.237 281.878 221.881 278 227C279.506 227.683 280.315 227.826 282 228L282 206L280 206z"/>
<path style="fill:#cb3940; stroke:none;" d="M282 206C284.052 206.874 285.747 206.953 288 207C285.948 206.126 284.253 206.047 282 206z"/>
<path style="fill:#072c38; stroke:none;" d="M259 208C258.277 213.721 258 219.227 258 225L260 225C260 219.638 261.087 212.974 259 208z"/>
<path style="fill:#1f949d; stroke:none;" d="M212 217L212 225L214 225L214 217L212 217z"/>
<path style="fill:#140b0d; stroke:none;" d="M230 217C230.013 220.194 229.597 222.271 233 223C232.342 220.866 232.048 219.228 232 217L230 217z"/>
<path style="fill:#3d4743; stroke:none;" d="M231.333 219.667C231.278 219.722 231.222 220.778 231.667 220.333C231.722 220.278 231.778 219.222 231.333 219.667z"/>
<path style="fill:#5b0000; stroke:none;" d="M230 223L230 225C231.635 224.455 231.455 224.635 232 223L230 223z"/>
<path style="fill:#7a666b; stroke:none;" d="M232.333 223.667C232.278 223.722 232.222 224.778 232.667 224.333C232.722 224.278 232.778 223.222 232.333 223.667z"/>
<path style="fill:#ba282b; stroke:none;" d="M231 224L230 228C231.656 226.596 231.751 226.046 231 224z"/>
<path style="fill:#1c2e2a; stroke:none;" d="M213.333 225.667C213.278 225.722 213.222 226.778 213.667 226.333C213.722 226.278 213.778 225.222 213.333 225.667z"/>
<path style="fill:#150000; stroke:none;" d="M216 225C220.217 226.769 225.459 226 230 226C225.783 224.231 220.541 225 216 225z"/>
<path style="fill:#920000; stroke:none;" d="M230.333 225.667C230.278 225.722 230.222 226.778 230.667 226.333C230.722 226.278 230.778 225.222 230.333 225.667z"/>
<path style="fill:#822025; stroke:none;" d="M232 225L232 228C232.696 226.446 232.696 226.554 232 225z"/>
<path style="fill:#4a0000; stroke:none;" d="M215 226C219.471 227.876 225.183 227 230 227C225.529 225.124 219.817 226 215 226z"/>
<path style="fill:#430000; stroke:none;" d="M233 226C237.379 228.532 244.913 227 250 227C245.026 224.913 238.362 226 233 226z"/>
<path style="fill:#b27074; stroke:none;" d="M215 227L216 228L215 227z"/>
<path style="fill:#a42627; stroke:none;" d="M216 227C220.217 228.769 225.459 228 230 228C225.783 226.231 220.541 227 216 227z"/>
<path style="fill:#992c27; stroke:none;" d="M235 227C239.471 228.876 245.183 228 250 228C245.529 226.124 239.817 227 235 227z"/>
<path style="fill:#9c2a29; stroke:none;" d="M261 227C265.974 229.087 272.638 228 278 228C273.026 225.913 266.362 227 261 227z"/>
</svg>
