<?xml version="1.0" standalone="no"?>
<!DOCTYPE svg PUBLIC "-//W3C//DTD SVG 20010904//EN"
 "http://www.w3.org/TR/2001/REC-SVG-20010904/DTD/svg10.dtd">
<svg version="1.0" xmlns="http://www.w3.org/2000/svg"
 width="500.000000pt" height="500.000000pt" viewBox="0 0 500.000000 500.000000"
 preserveAspectRatio="xMidYMid meet">
<metadata>
Created by potrace 1.16, written by Peter Selinger 2001-2019
</metadata>
<g transform="translate(0.000000,500.000000) scale(0.100000,-0.100000)"
fill="#000000" stroke="none">
<path d="M2385 3120 l60 -7 -55 -2 c-30 -2 -99 -4 -153 -5 -75 -1 -100 -5
-107 -16 -13 -20 -13 -343 0 -335 5 3 7 0 5 -8 -11 -26 39 -40 117 -33 82 7
74 7 146 0 29 -3 69 -3 88 0 l34 7 1 122 c0 67 3 116 6 109 3 -7 16 -17 29
-22 23 -9 24 -14 24 -94 0 -113 12 -126 119 -126 126 0 121 -5 121 116 l0 104
30 0 30 0 0 84 0 84 -34 16 c-27 13 -63 16 -168 14 -94 -1 -117 -3 -78 -7 l55
-7 -65 -5 c-38 -2 -68 0 -72 6 -5 6 -8 5 -8 -4 0 -11 -3 -11 -15 -1 -8 7 -15
9 -15 4 0 -4 -5 -3 -12 4 -7 7 -38 11 -77 10 l-66 -1 60 -7z"/>
<path d="M2434 2576 c-3 -8 -1 -23 5 -35 18 -32 13 -38 -30 -37 -48 1 -69 -20
-69 -71 0 -59 64 -102 110 -73 9 5 19 5 27 -1 21 -18 58 -7 55 16 -2 11 -6 62
-9 113 -5 84 -7 92 -24 87 -10 -4 -27 -1 -39 5 -16 9 -22 8 -26 -4z"/>
<path d="M1256 2571 c-4 -6 -2 -20 5 -32 7 -14 10 -53 7 -106 -4 -80 -4 -83
17 -83 20 0 21 4 18 58 -4 62 -6 62 42 -12 17 -26 28 -31 65 -34 l45 -3 0 106
c0 58 -3 105 -7 105 -3 0 -13 3 -21 6 -13 5 -15 -6 -11 -73 l5 -78 -38 73
c-32 62 -41 72 -64 72 -15 0 -34 3 -42 6 -8 3 -18 1 -21 -5z"/>
<path d="M2840 2535 c0 -41 20 -47 45 -12 15 21 16 17 13 -71 l-3 -92 50 0 50
0 -3 92 c-3 88 -2 92 13 71 25 -35 45 -29 45 12 l0 35 -105 0 -105 0 0 -35z"/>
<path d="M1835 2511 c-4 -7 -33 -11 -77 -9 -59 3 -72 0 -84 -16 -22 -30 -18
-83 9 -109 14 -15 21 -32 19 -49 -4 -38 25 -52 78 -38 49 13 60 33 60 104 0
30 5 67 12 81 8 18 8 29 1 36 -8 8 -13 7 -18 0z"/>
<path d="M1885 2510 c-9 -14 4 -50 18 -51 7 0 2 -4 -10 -9 -31 -13 -31 -63 -1
-84 25 -18 64 -21 72 -7 4 5 18 5 35 -2 35 -13 64 -3 57 20 -3 10 -7 36 -11
58 -8 54 -25 68 -82 68 -26 0 -53 4 -60 9 -7 5 -14 5 -18 -2z"/>
<path d="M2205 2509 c-5 -6 -22 -8 -46 -4 -63 11 -86 -10 -86 -79 0 -52 1 -56
30 -66 57 -20 110 -11 127 20 15 28 2 49 -44 72 -23 12 -35 23 -28 26 7 2 21
-3 31 -12 20 -18 41 -5 41 25 0 22 -16 33 -25 18z"/>
<path d="M1535 2503 c-36 -9 -55 -34 -55 -73 0 -46 24 -70 79 -77 45 -6 91 16
91 43 0 13 -7 15 -32 10 -18 -4 -34 -11 -36 -16 -5 -15 -22 -12 -22 3 0 7 20
18 45 25 37 10 45 16 45 36 0 13 -6 28 -12 34 -16 13 -77 22 -103 15z"/>
<path d="M2615 2503 c-36 -9 -55 -34 -55 -73 0 -51 28 -75 90 -75 62 0 90 23
90 76 0 29 -6 42 -23 54 -27 17 -73 26 -102 18z"/>
<path d="M3072 2502 c-7 -5 -10 -15 -8 -23 3 -8 8 -34 10 -59 8 -63 47 -88 91
-56 16 12 21 11 33 -1 8 -8 28 -13 46 -11 25 2 30 7 27 23 -2 11 -5 44 -8 73
-4 45 -8 52 -26 52 -12 0 -33 3 -46 7 -23 6 -23 4 -17 -30 7 -38 -1 -87 -14
-87 -5 0 -8 21 -7 46 2 35 -3 49 -17 60 -22 16 -45 18 -64 6z"/>
<path d="M3424 2479 c3 -17 6 -46 6 -65 0 -52 47 -81 88 -55 11 7 12 12 1 29
-11 18 -10 26 3 54 l17 33 0 -52 c1 -41 5 -55 20 -63 24 -12 51 -13 70 -1 12
8 12 12 2 25 -8 9 -10 26 -6 45 11 51 25 46 25 -8 0 -53 15 -71 57 -71 27 0
51 18 36 28 -6 4 -13 30 -15 57 -2 41 -7 52 -29 64 -22 12 -29 12 -56 -1 -26
-13 -33 -13 -49 -1 -21 15 -64 9 -76 -10 -6 -9 -10 -9 -15 -1 -5 6 -26 14 -47
18 l-39 7 7 -32z"/>
</g>
</svg>
